<svg xmlns="http://www.w3.org/2000/svg" version="1.1" xmlns:xlink="http://www.w3.org/1999/xlink" xmlns:svgjs="http://svgjs.dev/svgjs" width="1500" height="935" viewBox="0 0 1500 935"><g transform="matrix(1,0,0,1,-0.9090909090909918,0.3785425101214628)"><svg viewBox="0 0 396 247" data-background-color="#ffffff" preserveAspectRatio="xMidYMid meet" height="935" width="1500" xmlns="http://www.w3.org/2000/svg" xmlns:xlink="http://www.w3.org/1999/xlink"><g id="tight-bounds" transform="matrix(1,0,0,1,0.2400000000000091,-0.09999999999999432)"><svg viewBox="0 0 395.52 247.2" height="247.2" width="395.52"><g><svg></svg></g><g><svg viewBox="0 0 395.52 247.2" height="247.2" width="395.52"><g transform="matrix(1,0,0,1,75.54432,77.43866995008318)"><svg viewBox="0 0 244.43135999999998 92.32266009983361" height="92.32266009983361" width="244.43135999999998"><g><svg viewBox="0 0 244.43135999999998 92.32266009983361" height="92.32266009983361" width="244.43135999999998"><g><svg viewBox="0 0 244.43136 92.32266009983363" height="92.32266009983361" width="244.43135999999998"><g><svg viewBox="0 0 244.43136 92.32266009983363" height="92.32266009983363" width="244.43136"><g id="textblocktransform"><svg viewBox="0 0 244.43136 92.32266009983363" height="92.32266009983363" width="244.43136" id="textblock"><g><svg viewBox="0 0 244.43136 92.32266009983363" height="92.32266009983363" width="244.43136"><g transform="matrix(1,0,0,1,0,0)"><svg width="244.43136" viewBox="1.45 -36.83 120.19 45.41" height="92.32266009983363" data-palette-color="#4a596d"><path d="M23.88-32.52L22.7-30.23Q22.48-29.85 22.23-29.66 21.98-29.48 21.58-29.48L21.58-29.48Q21.15-29.48 20.59-29.9 20.03-30.33 19.16-30.84 18.3-31.35 17.09-31.78 15.88-32.2 14.15-32.2L14.15-32.2Q12.53-32.2 11.28-31.76 10.03-31.33 9.19-30.58 8.35-29.83 7.93-28.81 7.5-27.8 7.5-26.63L7.5-26.63Q7.5-25.13 8.24-24.14 8.97-23.15 10.19-22.45 11.4-21.75 12.94-21.24 14.48-20.73 16.09-20.18 17.7-19.63 19.24-18.94 20.78-18.25 21.99-17.2 23.2-16.15 23.94-14.63 24.68-13.1 24.68-10.88L24.68-10.88Q24.68-8.53 23.88-6.46 23.08-4.4 21.54-2.88 20-1.35 17.76-0.48 15.53 0.4 12.68 0.4L12.68 0.4Q9.2 0.4 6.34-0.86 3.48-2.13 1.45-4.28L1.45-4.28 2.85-6.58Q3.05-6.85 3.34-7.04 3.63-7.23 3.98-7.23L3.98-7.23Q4.5-7.23 5.18-6.66 5.85-6.1 6.86-5.43 7.88-4.75 9.31-4.19 10.75-3.63 12.83-3.63L12.83-3.63Q14.55-3.63 15.9-4.1 17.25-4.58 18.19-5.44 19.13-6.3 19.63-7.5 20.13-8.7 20.13-10.18L20.13-10.18Q20.13-11.8 19.39-12.84 18.65-13.88 17.45-14.58 16.25-15.28 14.71-15.76 13.18-16.25 11.56-16.76 9.95-17.28 8.41-17.95 6.88-18.63 5.68-19.7 4.48-20.78 3.74-22.39 3-24 3-26.38L3-26.38Q3-28.28 3.74-30.05 4.48-31.83 5.88-33.2 7.28-34.58 9.34-35.4 11.4-36.23 14.08-36.23L14.08-36.23Q17.07-36.23 19.55-35.27 22.03-34.33 23.88-32.52L23.88-32.52ZM30.3-36.83L34.77-36.83 34.77-15.15 35.92-15.15Q36.42-15.15 36.75-15.29 37.07-15.43 37.47-15.85L37.47-15.85 45.47-24.43Q45.85-24.83 46.22-25.08 46.6-25.33 47.22-25.33L47.22-25.33 51.27-25.33 41.95-15.4Q41.6-14.98 41.26-14.65 40.92-14.33 40.5-14.08L40.5-14.08Q40.95-13.78 41.31-13.39 41.67-13 42-12.5L42-12.5 51.9 0 47.9 0Q47.35 0 46.96-0.21 46.57-0.43 46.22-0.88L46.22-0.88 37.9-11.25Q37.52-11.78 37.15-11.94 36.77-12.1 36.02-12.1L36.02-12.1 34.77-12.1 34.77 0 30.3 0 30.3-36.83ZM60.8 0L56.35 0 56.35-25.33 58.9-25.33Q59.62-25.33 59.9-25.05 60.17-24.78 60.27-24.1L60.27-24.1 60.57-20.15Q61.87-22.8 63.78-24.29 65.7-25.78 68.27-25.78L68.27-25.78Q69.32-25.78 70.17-25.54 71.02-25.3 71.75-24.88L71.75-24.88 71.17-21.55Q71-20.93 70.4-20.93L70.4-20.93Q70.05-20.93 69.32-21.16 68.6-21.4 67.3-21.4L67.3-21.4Q64.97-21.4 63.41-20.05 61.85-18.7 60.8-16.13L60.8-16.13 60.8 0ZM94.14-16.2L94.14 0 92.17 0Q91.52 0 91.12-0.2 90.72-0.4 90.59-1.05L90.59-1.05 90.09-3.4Q89.09-2.5 88.14-1.79 87.19-1.07 86.14-0.59 85.09-0.1 83.91 0.15 82.72 0.4 81.27 0.4L81.27 0.4Q79.79 0.4 78.51-0.01 77.22-0.43 76.27-1.25 75.32-2.08 74.76-3.34 74.19-4.6 74.19-6.33L74.19-6.33Q74.19-7.83 75.02-9.21 75.84-10.6 77.68-11.68 79.52-12.75 82.49-13.44 85.47-14.13 89.77-14.23L89.77-14.23 89.77-16.2Q89.77-19.15 88.51-20.66 87.24-22.18 84.77-22.18L84.77-22.18Q83.14-22.18 82.03-21.76 80.92-21.35 80.11-20.84 79.29-20.33 78.71-19.91 78.12-19.5 77.54-19.5L77.54-19.5Q77.09-19.5 76.76-19.74 76.42-19.98 76.22-20.33L76.22-20.33 75.42-21.75Q77.52-23.78 79.94-24.78 82.37-25.78 85.32-25.78L85.32-25.78Q87.44-25.78 89.09-25.08 90.74-24.38 91.87-23.13 92.99-21.88 93.57-20.1 94.14-18.32 94.14-16.2L94.14-16.2ZM82.59-2.73L82.59-2.73Q83.77-2.73 84.74-2.96 85.72-3.2 86.58-3.64 87.44-4.08 88.23-4.7 89.02-5.33 89.77-6.13L89.77-6.13 89.77-11.4Q86.69-11.3 84.54-10.91 82.39-10.53 81.04-9.9 79.69-9.28 79.08-8.43 78.47-7.58 78.47-6.53L78.47-6.53Q78.47-5.53 78.79-4.8 79.12-4.08 79.67-3.61 80.22-3.15 80.97-2.94 81.72-2.73 82.59-2.73ZM121.64-25.33L107.52 7.48Q107.29 7.98 106.95 8.28 106.62 8.58 105.92 8.58L105.92 8.58 102.62 8.58 107.24-1.48 96.79-25.33 100.64-25.33Q101.22-25.33 101.54-25.04 101.87-24.75 102.02-24.4L102.02-24.4 108.79-8.45Q109.02-7.9 109.18-7.35 109.34-6.8 109.47-6.23L109.47-6.23Q109.64-6.8 109.82-7.35 109.99-7.9 110.22-8.47L110.22-8.47 116.79-24.4Q116.94-24.8 117.3-25.06 117.67-25.33 118.09-25.33L118.09-25.33 121.64-25.33Z" opacity="1" transform="matrix(1,0,0,1,0,0)" fill="#4a596d" class="wordmark-text-0" data-fill-palette-color="primary" id="text-0"></path></svg></g></svg></g></svg></g></svg></g></svg></g></svg></g></svg></g><path d="M221.221 71.439L221.221 18.546 11.113 18.546 11.113 228.654 221.221 228.654 221.221 175.761 212.895 175.761 212.895 220.328 19.439 220.328 19.439 26.872 212.895 26.872 212.895 71.439Z" fill="#4a596d" stroke="transparent" data-fill-palette-color="tertiary"></path></svg></g><defs></defs></svg><rect width="395.52" height="247.2" fill="none" stroke="none" visibility="hidden"></rect></g></svg></g></svg>